<svg xmlns="http://www.w3.org/2000/svg" xmlns:xlink="http://www.w3.org/1999/xlink" width="5669" zoomAndPan="magnify" viewBox="0 0 4251.75 1417.499936" height="1890" preserveAspectRatio="xMidYMid meet" version="1.0"><defs><g/><clipPath id="8d650157c8"><path d="M 0.625 0 L 4250.875 0 L 4250.875 1417 L 0.625 1417 Z M 0.625 0 " clip-rule="nonzero"/></clipPath><clipPath id="917732f162"><path d="M 142.308594 468.421875 L 1006 468.421875 L 1006 887.101562 L 142.308594 887.101562 Z M 142.308594 468.421875 " clip-rule="nonzero"/></clipPath><clipPath id="2ad52c8f1c"><path d="M 796.679688 468.421875 C 912.296875 468.421875 1006.019531 562.148438 1006.019531 677.761719 C 1006.019531 793.375 912.296875 887.101562 796.679688 887.101562 L 351.644531 887.101562 C 236.03125 887.101562 142.308594 793.375 142.308594 677.761719 C 142.308594 562.148438 236.03125 468.421875 351.644531 468.421875 Z M 796.679688 468.421875 " clip-rule="nonzero"/></clipPath><clipPath id="70bec00a58"><path d="M 182.390625 507.40625 L 969 507.40625 L 969 848.117188 L 182.390625 848.117188 Z M 182.390625 507.40625 " clip-rule="nonzero"/></clipPath><clipPath id="f2f09274b3"><path d="M 798.765625 507.40625 C 892.851562 507.40625 969.121094 583.675781 969.121094 677.761719 C 969.121094 771.847656 892.851562 848.117188 798.765625 848.117188 L 352.746094 848.117188 C 258.660156 848.117188 182.390625 771.847656 182.390625 677.761719 C 182.390625 583.675781 258.660156 507.40625 352.746094 507.40625 Z M 798.765625 507.40625 " clip-rule="nonzero"/></clipPath></defs><g clip-path="url(#8d650157c8)"><path fill="#ffffff" d="M 0.625 0 L 4250.875 0 L 4250.875 1417 L 0.625 1417 Z M 0.625 0 " fill-opacity="1" fill-rule="nonzero"/><path fill="#1c2232" d="M 0.625 0 L 4250.875 0 L 4250.875 1417 L 0.625 1417 Z M 0.625 0 " fill-opacity="1" fill-rule="nonzero"/></g><g clip-path="url(#917732f162)"><g clip-path="url(#2ad52c8f1c)"><path fill="#ffffff" d="M 142.308594 468.421875 L 1005.828125 468.421875 L 1005.828125 887.101562 L 142.308594 887.101562 Z M 142.308594 468.421875 " fill-opacity="1" fill-rule="nonzero"/></g></g><g clip-path="url(#70bec00a58)"><g clip-path="url(#f2f09274b3)"><path fill="#141924" d="M 182.390625 507.40625 L 968.960938 507.40625 L 968.960938 848.117188 L 182.390625 848.117188 Z M 182.390625 507.40625 " fill-opacity="1" fill-rule="nonzero"/></g></g><g fill="#118def" fill-opacity="1"><g transform="translate(704.265575, 726.437267)"><g><path d="M 57.96875 -122.859375 C 65.925781 -122.859375 72.644531 -121.613281 78.125 -119.125 C 83.601562 -116.644531 88.039062 -112.894531 91.4375 -107.875 C 94.84375 -102.863281 97.320312 -96.550781 98.875 -88.9375 C 100.4375 -81.320312 101.21875 -72.441406 101.21875 -62.296875 C 101.21875 -19.609375 86.222656 1.734375 56.234375 1.734375 C 26.816406 1.734375 12.109375 -19.03125 12.109375 -60.5625 C 12.109375 -102.09375 27.394531 -122.859375 57.96875 -122.859375 Z M 31.140625 -60.5625 C 31.140625 -28.84375 39.789062 -12.984375 57.09375 -12.984375 C 66.09375 -12.984375 72.523438 -16.929688 76.390625 -24.828125 C 80.253906 -32.734375 82.1875 -44.875 82.1875 -61.25 C 82.1875 -77.40625 80.3125 -89.257812 76.5625 -96.8125 C 72.8125 -104.363281 66.265625 -108.140625 56.921875 -108.140625 C 47.691406 -108.140625 41.085938 -104.300781 37.109375 -96.625 C 33.128906 -88.957031 31.140625 -76.9375 31.140625 -60.5625 Z M 31.140625 -60.5625 "/></g></g></g><g fill="#118def" fill-opacity="1"><g transform="translate(319.844807, 726.437267)"><g><path d="M 57.96875 -122.859375 C 65.925781 -122.859375 72.644531 -121.613281 78.125 -119.125 C 83.601562 -116.644531 88.039062 -112.894531 91.4375 -107.875 C 94.84375 -102.863281 97.320312 -96.550781 98.875 -88.9375 C 100.4375 -81.320312 101.21875 -72.441406 101.21875 -62.296875 C 101.21875 -19.609375 86.222656 1.734375 56.234375 1.734375 C 26.816406 1.734375 12.109375 -19.03125 12.109375 -60.5625 C 12.109375 -102.09375 27.394531 -122.859375 57.96875 -122.859375 Z M 31.140625 -60.5625 C 31.140625 -28.84375 39.789062 -12.984375 57.09375 -12.984375 C 66.09375 -12.984375 72.523438 -16.929688 76.390625 -24.828125 C 80.253906 -32.734375 82.1875 -44.875 82.1875 -61.25 C 82.1875 -77.40625 80.3125 -89.257812 76.5625 -96.8125 C 72.8125 -104.363281 66.265625 -108.140625 56.921875 -108.140625 C 47.691406 -108.140625 41.085938 -104.300781 37.109375 -96.625 C 33.128906 -88.957031 31.140625 -76.9375 31.140625 -60.5625 Z M 31.140625 -60.5625 "/></g></g></g><g fill="#ffffff" fill-opacity="1"><g transform="translate(1031.941982, 765.588688)"><g><path d="M 21.375 0 L 21.375 -187.078125 L 282.21875 -187.078125 C 292.726562 -187.078125 302.082031 -184.710938 310.28125 -179.984375 C 318.476562 -175.265625 324.9375 -168.804688 329.65625 -160.609375 C 334.375 -152.421875 336.734375 -143.070312 336.734375 -132.5625 C 336.734375 -116.519531 331.566406 -103.507812 321.234375 -93.53125 C 331.566406 -83.5625 336.734375 -70.554688 336.734375 -54.515625 C 336.734375 -44.003906 334.375 -34.648438 329.65625 -26.453125 C 324.9375 -18.265625 318.476562 -11.804688 310.28125 -7.078125 C 302.082031 -2.359375 292.726562 0 282.21875 0 Z M 52.375 -31 L 282.21875 -31 C 288.988281 -31 294.597656 -33.269531 299.046875 -37.8125 C 303.503906 -42.351562 305.734375 -47.921875 305.734375 -54.515625 C 305.734375 -61.285156 303.503906 -66.894531 299.046875 -71.34375 C 294.597656 -75.800781 288.988281 -78.03125 282.21875 -78.03125 L 52.375 -78.03125 Z M 52.375 -109.03125 L 282.21875 -109.03125 C 288.988281 -109.03125 294.597656 -111.300781 299.046875 -115.84375 C 303.503906 -120.394531 305.734375 -125.96875 305.734375 -132.5625 C 305.734375 -139.332031 303.503906 -144.941406 299.046875 -149.390625 C 294.597656 -153.847656 288.988281 -156.078125 282.21875 -156.078125 L 52.375 -156.078125 Z M 52.375 -109.03125 "/></g></g></g><g fill="#ffffff" fill-opacity="1"><g transform="translate(1394.405493, 765.588688)"><g><path d="M 52.375 -132.5625 C 52.375 -125.96875 54.644531 -120.394531 59.1875 -115.84375 C 63.738281 -111.300781 69.3125 -109.03125 75.90625 -109.03125 L 305.734375 -109.03125 L 305.734375 -187.078125 L 336.734375 -187.078125 L 336.734375 -54.515625 C 336.734375 -44.003906 334.375 -34.648438 329.65625 -26.453125 C 324.9375 -18.265625 318.476562 -11.804688 310.28125 -7.078125 C 302.082031 -2.359375 292.726562 0 282.21875 0 L 29.390625 0 L 29.390625 -31 L 282.21875 -31 C 288.988281 -31 294.597656 -33.269531 299.046875 -37.8125 C 303.503906 -42.351562 305.734375 -47.921875 305.734375 -54.515625 L 305.734375 -78.03125 L 75.90625 -78.03125 C 65.382812 -78.03125 56.023438 -80.390625 47.828125 -85.109375 C 39.640625 -89.835938 33.179688 -96.296875 28.453125 -104.484375 C 23.734375 -112.679688 21.375 -122.039062 21.375 -132.5625 L 21.375 -187.078125 L 52.375 -187.078125 Z M 52.375 -132.5625 "/></g></g></g><g fill="#ffffff" fill-opacity="1"><g transform="translate(1756.869003, 765.588688)"><g><path d="M 174.25 0 L 174.25 -156.078125 L 21.375 -156.078125 L 21.375 -187.078125 L 358.109375 -187.078125 L 358.109375 -156.078125 L 205.25 -156.078125 L 205.25 0 Z M 174.25 0 "/></g></g></g><g fill="#ffffff" fill-opacity="1"><g transform="translate(2140.700968, 765.588688)"><g><path d="M 21.375 -132.5625 C 21.375 -143.070312 23.734375 -152.421875 28.453125 -160.609375 C 33.179688 -168.804688 39.640625 -175.265625 47.828125 -179.984375 C 56.023438 -184.710938 65.382812 -187.078125 75.90625 -187.078125 L 336.734375 -187.078125 L 336.734375 -156.078125 L 75.90625 -156.078125 C 69.3125 -156.078125 63.738281 -153.847656 59.1875 -149.390625 C 54.644531 -144.941406 52.375 -139.332031 52.375 -132.5625 L 52.375 -109.03125 L 336.734375 -109.03125 L 336.734375 -78.03125 L 52.375 -78.03125 L 52.375 -54.515625 C 52.375 -47.921875 54.644531 -42.351562 59.1875 -37.8125 C 63.738281 -33.269531 69.3125 -31 75.90625 -31 L 336.734375 -31 L 336.734375 0 L 75.90625 0 C 65.382812 0 56.023438 -2.359375 47.828125 -7.078125 C 39.640625 -11.804688 33.179688 -18.265625 28.453125 -26.453125 C 23.734375 -34.648438 21.375 -44.003906 21.375 -54.515625 Z M 21.375 -132.5625 "/></g></g></g><g fill="#118def" fill-opacity="1"><g transform="translate(2503.33777, 765.588688)"><g><path d="M 21.375 -132.5625 C 21.375 -143.070312 23.734375 -152.421875 28.453125 -160.609375 C 33.179688 -168.804688 39.640625 -175.265625 47.828125 -179.984375 C 56.023438 -184.710938 65.382812 -187.078125 75.90625 -187.078125 L 336.734375 -187.078125 L 336.734375 -156.078125 L 75.90625 -156.078125 C 69.3125 -156.078125 63.738281 -153.847656 59.1875 -149.390625 C 54.644531 -144.941406 52.375 -139.332031 52.375 -132.5625 L 52.375 -109.03125 L 336.734375 -109.03125 L 336.734375 -78.03125 L 52.375 -78.03125 L 52.375 0 L 21.375 0 Z M 21.375 -132.5625 "/></g></g></g><g fill="#118def" fill-opacity="1"><g transform="translate(2865.80128, 765.588688)"><g><path d="M 52.375 -54.515625 C 52.375 -47.921875 54.644531 -42.351562 59.1875 -37.8125 C 63.738281 -33.269531 69.3125 -31 75.90625 -31 L 336.734375 -31 L 336.734375 0 L 75.90625 0 C 65.382812 0 56.023438 -2.359375 47.828125 -7.078125 C 39.640625 -11.804688 33.179688 -18.265625 28.453125 -26.453125 C 23.734375 -34.648438 21.375 -44.003906 21.375 -54.515625 L 21.375 -187.078125 L 52.375 -187.078125 Z M 52.375 -54.515625 "/></g></g></g><g fill="#118def" fill-opacity="1"><g transform="translate(3228.26479, 765.588688)"><g><path d="M 282.21875 -187.078125 C 292.726562 -187.078125 302.082031 -184.710938 310.28125 -179.984375 C 318.476562 -175.265625 324.9375 -168.804688 329.65625 -160.609375 C 334.375 -152.421875 336.734375 -143.070312 336.734375 -132.5625 L 336.734375 -54.515625 C 336.734375 -44.003906 334.375 -34.648438 329.65625 -26.453125 C 324.9375 -18.265625 318.476562 -11.804688 310.28125 -7.078125 C 302.082031 -2.359375 292.726562 0 282.21875 0 L 75.90625 0 C 65.382812 0 56.023438 -2.359375 47.828125 -7.078125 C 39.640625 -11.804688 33.179688 -18.265625 28.453125 -26.453125 C 23.734375 -34.648438 21.375 -44.003906 21.375 -54.515625 L 21.375 -132.5625 C 21.375 -143.070312 23.734375 -152.421875 28.453125 -160.609375 C 33.179688 -168.804688 39.640625 -175.265625 47.828125 -179.984375 C 56.023438 -184.710938 65.382812 -187.078125 75.90625 -187.078125 Z M 52.375 -54.515625 C 52.375 -47.921875 54.644531 -42.351562 59.1875 -37.8125 C 63.738281 -33.269531 69.3125 -31 75.90625 -31 L 282.21875 -31 C 288.988281 -31 294.597656 -33.269531 299.046875 -37.8125 C 303.503906 -42.351562 305.734375 -47.921875 305.734375 -54.515625 L 305.734375 -132.5625 C 305.734375 -139.332031 303.503906 -144.941406 299.046875 -149.390625 C 294.597656 -153.847656 288.988281 -156.078125 282.21875 -156.078125 L 75.90625 -156.078125 C 69.3125 -156.078125 63.738281 -153.847656 59.1875 -149.390625 C 54.644531 -144.941406 52.375 -139.332031 52.375 -132.5625 Z M 52.375 -54.515625 "/></g></g></g><g fill="#118def" fill-opacity="1"><g transform="translate(3590.72833, 765.588688)"><g><path d="M 230.90625 -187.078125 L 261.90625 -187.078125 L 283.28125 -54.515625 C 284.351562 -47.921875 286.894531 -42.351562 290.90625 -37.8125 C 294.914062 -33.269531 300.210938 -31 306.796875 -31 L 395.53125 -31 C 402.300781 -31 407.644531 -33.269531 411.5625 -37.8125 C 415.476562 -42.351562 417.972656 -47.921875 419.046875 -54.515625 L 440.421875 -187.078125 L 471.421875 -187.078125 L 450.046875 -54.515625 C 448.441406 -44.003906 445.320312 -34.648438 440.6875 -26.453125 C 436.0625 -18.265625 430.003906 -11.804688 422.515625 -7.078125 C 415.035156 -2.359375 406.039062 0 395.53125 0 L 306.796875 0 C 296.285156 0 287.289062 -2.359375 279.8125 -7.078125 C 272.332031 -11.804688 266.316406 -18.265625 261.765625 -26.453125 C 257.222656 -34.648438 254.0625 -44.003906 252.28125 -54.515625 L 246.40625 -90.859375 L 240.53125 -54.515625 C 238.925781 -44.003906 235.804688 -34.648438 231.171875 -26.453125 C 226.535156 -18.265625 220.476562 -11.804688 213 -7.078125 C 205.519531 -2.359375 196.519531 0 186 0 L 97.28125 0 C 86.769531 0 77.769531 -2.359375 70.28125 -7.078125 C 62.800781 -11.804688 56.789062 -18.265625 52.25 -26.453125 C 47.707031 -34.648438 44.546875 -44.003906 42.765625 -54.515625 L 21.375 -187.078125 L 52.375 -187.078125 L 73.765625 -54.515625 C 74.828125 -47.921875 77.363281 -42.351562 81.375 -37.8125 C 85.382812 -33.269531 90.6875 -31 97.28125 -31 L 186 -31 C 192.769531 -31 198.113281 -33.269531 202.03125 -37.8125 C 205.957031 -42.351562 208.457031 -47.921875 209.53125 -54.515625 Z M 230.90625 -187.078125 "/></g></g></g></svg>